<svg xmlns="http://www.w3.org/2000/svg" width="463" height="433" viewBox="0 0 463 433" version="1.1"><path d="" stroke="none" fill="#e8e4e4" fill-rule="evenodd"/><path d="M 83.315 1.529 C 80.464 2.297, 71.914 5.694, 64.315 9.077 C 50.925 15.039, 50.146 15.254, 39 16.067 C 26.947 16.946, 21.096 18.523, 10 23.881 C 1.019 28.219, -0.369 29.417, 0.363 32.199 C 1.222 35.467, 16.772 52.916, 24.131 58.870 C 30.029 63.643, 30.411 64.223, 32.151 71.075 C 33.156 75.031, 35.838 82.306, 38.111 87.242 C 40.995 93.501, 42.495 98.375, 43.072 103.357 C 43.837 109.961, 48.085 123.396, 51.492 129.985 C 52.284 131.517, 54.973 133.966, 57.466 135.427 C 61.706 137.912, 62 138.357, 61.998 142.292 C 61.998 144.606, 61.060 151.437, 59.915 157.472 C 57.467 170.377, 57.526 171.243, 62.374 194 C 64.425 203.625, 66.192 212.159, 66.301 212.965 C 66.412 213.783, 64.841 215.224, 62.750 216.223 C 60.688 217.209, 59 218.574, 59 219.257 C 59 219.939, 61.059 226.674, 63.575 234.224 L 68.149 247.950 63.948 261.725 C 54.609 292.352, 53.829 295.842, 54.393 304.500 C 54.859 311.651, 52.332 332.496, 47.452 361.750 L 46.909 365 51.832 365 C 58.892 365, 59.875 366.621, 56.537 372.754 C 55.088 375.417, 49.891 382.975, 44.989 389.548 C 40.087 396.122, 36.059 402.026, 36.038 402.669 C 36.017 403.311, 39.712 406.650, 44.250 410.087 C 48.787 413.524, 55.920 419.168, 60.099 422.629 L 67.699 428.921 83.599 425.477 C 104.189 421.017, 106.946 421.058, 119.961 426.015 C 140.197 433.723, 148.667 430.051, 153.440 411.500 C 154.366 407.899, 155.786 404.951, 156.992 404.128 C 159.541 402.386, 159.530 399.960, 156.950 394.902 C 155.041 391.161, 154.930 389.550, 155.333 371.475 L 155.766 352.065 159.548 346.800 C 163.689 341.036, 163.849 339.785, 162.476 323.908 L 161.820 316.316 165.945 312.889 L 170.070 309.463 168.592 302.481 C 167.779 298.642, 165.588 290.206, 163.723 283.735 C 161.001 274.295, 160.585 271.759, 161.618 270.902 C 162.601 270.086, 163.257 270.679, 164.401 273.417 C 165.224 275.388, 166.528 277, 167.298 277 C 168.069 277, 175.336 273.816, 183.448 269.924 C 197.926 262.978, 198.283 262.867, 202.849 263.886 C 205.407 264.456, 213.800 266.112, 221.500 267.565 C 233.502 269.830, 235.991 270.030, 238.938 268.971 C 243.124 267.466, 242.858 267.184, 256.611 287.717 C 266.885 303.057, 269.753 306.057, 277.592 309.661 C 282.032 311.702, 282.845 312.546, 283.940 316.251 C 286.698 325.579, 289.103 329.735, 293.624 332.982 C 299.298 337.056, 302.284 341.671, 304.961 350.500 C 307.379 358.475, 310.688 363.736, 316.173 368.321 C 319.944 371.474, 320.005 371.643, 323.631 389 C 325.641 398.625, 327.689 408.188, 328.181 410.250 L 329.077 414 338.328 414 C 348.590 414, 355.956 415.592, 365.908 419.960 C 370.264 421.871, 375.162 423.113, 380.127 423.562 C 387.290 424.211, 387.732 424.133, 388.256 422.128 C 388.793 420.077, 388.980 420.122, 393.973 423.482 C 406.407 431.849, 426.057 434.709, 438.500 429.963 C 446.246 427.009, 455.339 418.095, 459.835 409.050 L 463.041 402.599 457.634 397.050 C 450.251 389.471, 449.808 388.408, 451.105 381.388 C 453.675 367.488, 447.471 352.743, 433.481 339.500 C 430.954 337.109, 428.559 333.567, 427.524 330.695 C 424.399 322.023, 410.031 308.907, 388.686 295.241 C 381.850 290.865, 380.324 289.316, 376.499 282.869 C 373.291 277.463, 366.900 270.171, 352.512 255.500 C 335.950 238.612, 332.714 234.824, 331.717 231.158 C 330.699 227.416, 329.627 226.206, 323.966 222.408 C 320.353 219.983, 316.857 218, 316.198 218 C 314.208 218, 314.846 214.598, 317.523 210.944 C 321.716 205.220, 333.640 193.621, 338.046 190.980 C 349.615 184.048, 357.883 177.957, 372 165.968 C 390.027 150.658, 397.309 145.275, 405.230 141.404 C 413.887 137.173, 414.373 135.619, 413.780 114.076 C 413.514 104.414, 413.721 94.932, 414.240 93.005 C 414.759 91.077, 417.392 84.256, 420.092 77.846 C 422.791 71.436, 425 65.492, 425 64.636 C 425 63.664, 423.406 62.623, 420.750 61.860 C 418.413 61.189, 416.398 60.581, 416.273 60.509 C 416.148 60.437, 417.156 54.596, 418.514 47.527 C 419.872 40.459, 421.157 31.671, 421.370 27.999 C 421.582 24.327, 422.261 20.380, 422.878 19.227 C 425.621 14.102, 423.169 5, 419.045 5 C 418.032 5, 410.809 6.607, 402.995 8.571 C 388.935 12.104, 388.773 12.121, 387.391 10.147 C 386.622 9.050, 384.463 7.648, 382.593 7.031 C 379.663 6.064, 376.927 6.463, 362.844 9.916 C 353.853 12.120, 343.348 14.607, 339.498 15.442 C 335.649 16.277, 331.568 17.226, 330.429 17.550 C 328.725 18.035, 328.080 17.431, 326.786 14.137 C 325.446 10.725, 324.571 9.951, 320.857 8.894 C 313.472 6.790, 305.402 7.535, 293.347 11.432 C 283.888 14.490, 281.460 14.913, 276.403 14.389 C 270.274 13.753, 256.750 15.766, 249.160 18.444 L 245.174 19.850 239.074 15.317 C 234.026 11.566, 232.415 10.868, 229.737 11.270 C 227.957 11.538, 219.750 12.983, 211.500 14.483 C 191.900 18.046, 184.322 18.065, 171.007 14.585 C 165.236 13.076, 159.994 11.410, 159.357 10.881 C 157.665 9.477, 151.512 9.474, 133 10.869 C 122.873 11.632, 112.498 13.078, 106.139 14.611 C 100.440 15.986, 95.530 16.864, 95.228 16.561 C 94.926 16.259, 95.479 15.128, 96.458 14.047 C 97.436 12.966, 98.475 9.968, 98.766 7.385 C 99.194 3.586, 98.944 2.432, 97.456 1.344 C 95.149 -0.343, 90.013 -0.276, 83.315 1.529 M 115.500 28.594 C 114.400 28.828, 111.025 29.516, 108 30.122 C 104.975 30.728, 99.125 32.260, 95 33.526 C 83.441 37.074, 81 37.438, 81 35.615 C 81 32.701, 76.846 31.560, 66.500 31.630 C 54.776 31.710, 44.026 32.748, 42.008 33.995 C 40.843 34.715, 41.474 36.586, 45.450 44.189 C 58.978 70.058, 64.530 77.796, 71.646 80.697 L 76.069 82.500 75.784 87.500 C 75.529 91.989, 75.245 92.533, 73 92.821 C 68.833 93.355, 68 95.567, 68 106.097 L 68 115.813 77 133.945 C 81.950 143.918, 86 153.149, 86 154.459 C 86 155.769, 84.413 162.355, 82.472 169.096 C 80.532 175.837, 78.671 184.592, 78.336 188.551 L 77.728 195.750 83.999 208.497 L 90.269 221.244 85.947 230.372 L 81.624 239.500 80.949 267.500 C 80.577 282.900, 79.949 297.835, 79.551 300.689 C 79.154 303.543, 77.072 309.376, 74.924 313.652 L 71.018 321.426 74.455 333.463 C 76.346 340.083, 78.178 347.750, 78.527 350.500 C 79.840 360.849, 75.218 374.168, 64.650 390.481 C 62.163 394.320, 60.257 397.590, 60.414 397.747 C 60.571 397.905, 64.181 398.262, 68.435 398.541 C 72.690 398.820, 82.829 400.613, 90.966 402.524 C 99.103 404.436, 107.367 406, 109.331 406 C 111.294 406, 117.252 407.575, 122.570 409.500 C 127.888 411.425, 132.573 413, 132.981 413 C 133.390 413, 134.017 409.962, 134.374 406.250 C 134.732 402.538, 135.746 396.075, 136.627 391.888 C 138.216 384.342, 138.207 384.200, 135.615 375.388 C 132.421 364.534, 132.369 360.150, 135.345 352.916 L 137.642 347.331 135.269 343.916 C 132.208 339.510, 132.520 338.068, 139.832 322.851 L 145.745 310.543 139.850 291.770 C 136.608 281.445, 133.485 271.964, 132.910 270.701 C 132.036 268.783, 132.532 267.167, 135.931 260.866 L 139.998 253.326 154.218 250.563 C 170.531 247.393, 172.907 247.280, 178.775 249.391 C 182.976 250.902, 183.254 250.860, 194.775 246.945 L 206.500 242.961 217.500 244.497 C 235.152 246.962, 235.222 246.978, 234.628 248.526 C 233.904 250.415, 239.719 251.982, 244.881 251.289 C 248.716 250.775, 249.101 251.012, 257.824 259.279 C 262.769 263.966, 269.481 269.611, 272.740 271.824 C 278.553 275.771, 282.785 281.216, 289.117 292.895 C 291.179 296.697, 292.302 297.573, 297.446 299.395 L 303.391 301.500 305.182 307.500 C 306.167 310.800, 306.979 314.512, 306.986 315.750 C 307.003 318.556, 308.027 319.454, 321.041 328.071 L 331.582 335.051 337.041 363.504 L 342.500 391.957 348 393.058 C 351.025 393.663, 359.699 395.698, 367.276 397.579 C 374.852 399.461, 381.464 401, 381.969 401 C 382.474 401, 383.684 399.650, 384.659 398 C 385.696 396.245, 387.276 394.994, 388.466 394.985 C 389.585 394.976, 398.150 398.828, 407.500 403.544 C 416.850 408.261, 426.096 412.362, 428.048 412.658 C 432.820 413.382, 439 410.796, 439 408.075 C 439 406.960, 436.137 399.625, 432.639 391.774 C 429.140 383.923, 423.432 369.226, 419.953 359.112 L 413.630 340.725 405.116 334.112 C 381.079 315.444, 366.174 301.442, 349.108 281.500 C 330.932 260.259, 311.012 237.858, 301.374 227.819 L 294 220.138 294.002 210.819 L 294.004 201.500 305.722 193 C 312.167 188.325, 323.576 178.595, 331.075 171.378 L 344.710 158.256 351.187 157.128 C 354.749 156.508, 358.863 156, 360.329 156 C 363.880 156, 369.286 150.997, 379.371 138.376 C 391.743 122.893, 393.873 118.862, 395.496 107.856 C 396.605 100.328, 398.607 73.963, 398.787 64.500 C 398.808 63.400, 400.215 58.453, 401.913 53.507 C 406.025 41.528, 405.934 39.699, 400.984 34.749 C 397.078 30.843, 396.838 30.754, 392.234 31.514 C 386.028 32.538, 383.335 32.465, 378.500 31.142 C 370.313 28.902, 362.911 29.722, 347.906 34.530 L 333.770 39.060 323.737 36.530 C 318.219 35.139, 312.381 34, 310.764 34 C 309.148 34, 303.626 35.421, 298.493 37.157 L 289.161 40.314 277.331 34.919 C 262.818 28.301, 260.306 28.194, 247 33.623 L 237.500 37.500 230.500 35.129 C 222.271 32.343, 210.255 31.961, 177.500 33.449 C 150.791 34.661, 147.484 34.516, 133.500 31.519 C 117.186 28.022, 117.751 28.114, 115.500 28.594 M 176.610 88.012 C 170.621 92.405, 165.360 96, 164.919 96 C 164.479 96, 163.840 95.550, 163.500 95 C 163.160 94.450, 161.766 94, 160.403 94 C 159.039 94, 153.505 91.975, 148.106 89.500 C 142.707 87.025, 138.016 85, 137.683 85 C 136.220 85, 135.078 93.289, 135.273 102.500 C 135.470 111.826, 135.226 113.229, 131.649 123.304 L 127.814 134.109 129.907 147.119 C 132.385 162.524, 132.506 167.507, 130.494 171.364 C 129.672 172.940, 129 174.890, 129 175.698 C 129 176.507, 131.558 183.692, 134.684 191.665 C 140.224 205.798, 140.432 206.146, 142.934 205.488 C 144.345 205.116, 153.131 204.582, 162.457 204.301 C 178.255 203.825, 179.656 203.626, 182.940 201.395 C 187.509 198.290, 190.316 198.375, 203 202 C 208.773 203.650, 214.712 205, 216.199 205 C 219.964 205, 230.434 202.177, 230.810 201.060 C 231.341 199.482, 240.628 187.615, 243.158 185.281 C 244.481 184.060, 249.543 181.908, 254.407 180.499 C 259.271 179.089, 264.090 177.487, 265.115 176.938 C 267.611 175.603, 276.475 162.346, 280.212 154.361 C 283.585 147.153, 286.487 144.539, 296.117 140.033 C 301.638 137.449, 304.128 135.334, 311.778 126.730 C 316.781 121.104, 325.865 111.364, 331.966 105.087 L 343.058 93.673 341.191 88.087 L 339.325 82.500 321.412 82.457 C 311.561 82.433, 295.334 81.846, 285.354 81.151 L 267.209 79.888 249.533 83.424 C 222.722 88.786, 221.916 88.808, 205.500 84.606 C 197.800 82.635, 190.600 80.797, 189.500 80.523 C 188.102 80.174, 184.221 82.428, 176.610 88.012 M 263.322 99.250 C 262.883 99.938, 261.795 101.850, 260.902 103.500 C 259.419 106.240, 258.596 106.602, 251.389 107.683 C 233.789 110.324, 226.094 110.417, 217.151 108.099 L 208.812 105.937 197.656 109.075 C 191.520 110.801, 182.274 113.557, 177.109 115.199 L 167.718 118.184 162.609 115.640 C 159.799 114.240, 156.214 112.788, 154.642 112.412 C 152.033 111.788, 151.876 111.900, 152.837 113.696 C 154.201 116.243, 153.402 125.153, 150.794 136.506 L 148.724 145.511 153.476 152.856 L 158.227 160.201 153.463 165.037 L 148.699 169.874 150.850 174.872 C 152.032 177.621, 153 180.548, 153 181.376 C 153 182.204, 153.449 183.160, 153.999 183.499 C 154.774 183.979, 170.764 180.082, 178.773 177.462 C 180.099 177.028, 181.692 178.382, 186.152 183.737 L 188.804 186.920 197.652 183.803 C 204.786 181.289, 208.580 180.594, 217.242 180.215 L 227.985 179.744 233.637 173.123 C 236.746 169.481, 245.862 160.728, 253.895 153.672 C 269.639 139.842, 309 101.322, 309 99.745 C 309 99.209, 307.850 99.072, 306.401 99.435 C 304.972 99.794, 296.085 100.726, 286.651 101.507 L 269.500 102.927 267.462 100.463 C 265.156 97.675, 264.456 97.470, 263.322 99.250" stroke="none" fill="#e4e4e4" fill-rule="evenodd"/></svg>